:SAMPLES-PER-SECOND 30
:FULLY-SPECIFIED
:DEGREES
47
root  -77.4724 28.592 1.11307 174.218 85.2578 175.824
RightUpLeg  -68.8504 -5.3967 2.76658
RightLeg  90.1532 11.0653 -1.73848
RightFoot  -12.8664 -0.00987057 4.8428
RightToes  1.16414e-010 -1.59028e-015 9.93923e-017
Spine  48.6928 -2.11668 1.37488
Spine1  -8.34211 -0.110124 -1.878
HEad  -23.9662 1.43041 2.37066
LeftShoulder1  9.93923e-017 0 1.22299e-017
LeftArm  -6.66634 -41.7412 -61.4323
LeftForeArm  -126.392 -49.0713 167.518
LeftHand  0.0649337 3.96954 16.8983
RightShoulder  1.98785e-016 -4.96962e-017 1.55301e-017
RightArm  -26.8432 34.7995 69.8476
RightForeArm  68.6568 42.7021 -164.011
RightHand  4.13878 9.79505 35.2764
LeftUpLeg  -70.4536 1.06199 -3.44961
LeftLeg  91.6404 -13.0816 0.217299
LeftFoot  -14.6703 -0.112484 -6.78386
LeftToes  -6.63929e-010 -3.62392e-011 -1.02376e-010
48
root  -76.4051 27.153 1.22014 175.934 84.7096 178.745
RightUpLeg  -69.5245 -5.82751 2.54522
RightLeg  91.4304 11.174 -2.71618
RightFoot  -11.8972 -0.041224 4.35865
RightToes  1.16414e-010 -1.59028e-015 9.93923e-017
Spine  50.5628 -2.22408 1.49611
Spine1  -7.49154 -0.160087 -1.2986
HEad  -26.2745 1.24542 2.04386
LeftShoulder1  9.93923e-017 0 1.22299e-017
LeftArm  -6.79891 -42.2715 -61.1488
LeftForeArm  -125.77 -49.0655 167.479
LeftHand  0.0178064 3.85648 17.3385
RightShoulder  1.98785e-016 -4.96962e-017 1.55301e-017
RightArm  -27.0009 35.6772 69.2989
RightForeArm  67.8286 42.6862 -163.966
RightHand  4.02614 8.95634 35.7798
LeftUpLeg  -71.3789 1.15191 -4.34261
LeftLeg  90.9439 -13.0548 0.273766
LeftFoot  -14.1278 -0.0917028 -6.85814
LeftToes  -6.63929e-010 -3.62392e-011 -1.02376e-010
49
root  -75.2004 25.1852 1.33154 -178.883 84.1852 -175.642
RightUpLeg  -71.2166 -5.88905 2.79368
RightLeg  97.1943 11.4013 -1.84717
RightFoot  -14.5367 0.00757666 2.16182
RightToes  1.16414e-010 -1.59028e-015 9.93923e-017
Spine  50.5367 -2.28586 1.89843
Spine1  -6.04535 -0.197812 -0.626382
HEad  -28.3864 1.23095 2.02286
LeftShoulder1  9.93923e-017 0 1.22299e-017
LeftArm  -6.29307 -42.6335 -61.814
LeftForeArm  -125.445 -49.3026 167.27
LeftHand  -0.00738147 3.79748 17.5753
RightShoulder  1.98785e-016 -4.96962e-017 1.55301e-017
RightArm  -27.0619 36.0284 69.3963
RightForeArm  67.2229 42.7467 -163.854
RightHand  3.89575 8.2077 36.0479
LeftUpLeg  -73.5106 0.867684 -4.66273
LeftLeg  93.8811 -13.0792 -0.510566
LeftFoot  -14.5668 -0.0570413 -3.12218
LeftToes  -6.63929e-010 -3.62392e-011 -1.02376e-010
50
root  -73.913 22.882 1.43011 -171.562 83.8665 -169.107
RightUpLeg  -74.5194 -5.77644 3.90631
RightLeg  105.868 11.8265 -1.60474
RightFoot  -23.479 -0.0683006 -0.696699
RightToes  1.16414e-010 -1.59028e-015 9.93923e-017
Spine  49.1945 -2.30272 2.36653
Spine1  -5.6224 -0.158928 -0.152891
HEad  -29.5589 1.51983 2.24631
LeftShoulder1  9.93923e-017 0 1.22299e-017
LeftArm  -5.3819 -42.1828 -63.4635
LeftForeArm  -125.104 -49.2926 167.254
LeftHand  0.00975835 3.80119 17.0698
RightShoulder  1.98785e-016 -4.96962e-017 1.55301e-017
RightArm  -26.8882 34.8685 70.5252
RightForeArm  68.0117 42.5672 -164.11
RightHand  3.82164 8.31934 35.3187
LeftUpLeg  -78.0659 0.424867 -4.56687
LeftLeg  101.19 -13.3789 -0.299149
LeftFoot  -19.5121 0.0752222 2.25122
LeftToes  -6.63929e-010 -3.62392e-011 -1.02376e-010
51
root  -72.6315 20.4091 1.51112 -166.363 83.9075 -164.234
RightUpLeg  -78.172 -5.52542 5.27726
RightLeg  115.825 12.9713 -2.71751
RightFoot  -32.9099 -0.332537 -1.96573
RightToes  1.16414e-010 -1.59028e-015 9.93923e-017
Spine  49.0189 -2.1534 2.41543
Spine1  -6.77248 -0.161071 0.357081
HEad  -31.0228 1.86383 2.28741
LeftShoulder1  9.93923e-017 0 1.22299e-017
LeftArm  -4.90288 -41.2892 -65.0117
LeftForeArm  -125.098 -48.6054 167.786
LeftHand  0.0155185 3.75735 16.4876
RightShoulder  1.98785e-016 -4.96962e-017 1.55301e-017
RightArm  -26.6532 32.9825 72.1602
RightForeArm  69.1772 42.1294 -164.665
RightHand  3.83073 8.97378 34.3537
LeftUpLeg  -83.4978 0.275662 -4.23933
LeftLeg  111.303 -14.5045 1.49781
LeftFoot  -26.4029 0.469343 4.94862
LeftToes  -6.63929e-010 -3.62392e-011 -1.02376e-010
52
root  -71.4055 17.9408 1.57679 -166.592 83.9988 -162.376
RightUpLeg  -80.2304 -5.32571 5.94406
RightLeg  126.353 14.4259 -3.3078
RightFoot  -37.1579 -0.257983 -1.19353
RightToes  1.16414e-010 -1.59028e-015 9.93923e-017
Spine  51.1008 -1.91721 1.9841
Spine1  -7.78308 -0.347381 1.1085
HEad  -34.1105 1.88626 2.03509
LeftShoulder1  9.93923e-017 0 1.22299e-017
LeftArm  -5.03338 -41.2928 -65.8097
LeftForeArm  -125.376 -48.122 168.168
LeftHand  0.0157366 3.74802 16.3957
RightShoulder  1.98785e-016 -4.96962e-017 1.55301e-017
RightArm  -26.496 32.4719 73.215
RightForeArm  70.0505 42.056 -164.806
RightHand  3.98719 9.76514 34.284
LeftUpLeg  -87.0922 0.393309 -3.69026
LeftLeg  121.912 -15.9708 2.44278
LeftFoot  -30.5296 0.57733 4.4301
LeftToes  -6.63929e-010 -3.62392e-011 -1.02376e-010
